<?xml version="1.0" encoding="UTF-8"?>
<svg width="1003px" height="310px" viewBox="0 0 1003 310" version="1.1" xmlns="http://www.w3.org/2000/svg" xmlns:xlink="http://www.w3.org/1999/xlink">
    <!-- Generator: Sketch 43.2 (39069) - http://www.bohemiancoding.com/sketch -->
    <title>timclulow</title>
    <desc>Created with Sketch.</desc>
    <defs></defs>
    <g id="Page-1" stroke="none" stroke-width="1" fill="none" fill-rule="evenodd">
        <g id="timclulow">
            <path d="M132.964844,0.6640625 L1002.95031,0.6640625 L875.515625,282.574219 C875.515625,282.574219 865.273437,309.0625 842.800781,309.0625 L13.9838407,309.0625 C13.9838407,309.0625 -4.7890625,305.855469 1.7421875,285.15625 C8.2734375,264.457031 132.964844,0.6640625 132.964844,0.6640625 Z" id="Path" fill="#FC507E"></path>
            <g id="Group" opacity="0.207710598" transform="translate(179.000000, 96.000000)" stroke="#000000" stroke-width="6">
                <g id="Clulow" transform="translate(0.000000, 86.000000)">
                    <path d="M271.949997,0.755876251 L271.949997,20.7964747 C271.698614,33.6035156 263.066791,42.8370732 241.756306,42.8370732 L227.714346,42.8370732 C202.244608,42.8370732 195,34.7304688 195,21.7964747 L195,1.38788821" id="U" stroke-linecap="round" stroke-linejoin="round"></path>
                    <path d="M359.838094,43.449185 L324,43.449185 C324,43.449185 314,43.449185 314,33.1308425 L314,1" id="L2" stroke-linecap="round" stroke-linejoin="round"></path>
                    <path d="M165.838094,43.449185 L130,43.449185 C130,43.449185 120,43.449185 120,33.1308425 L120,1" id="L1" stroke-linecap="round" stroke-linejoin="round"></path>
                    <path d="M615.960938,1.75587625 C615.960938,1.75587625 598.868859,36.8938274 598.607202,37.3205587 C594.999023,43.2050612 590.347747,38.6420127 590.347747,38.6420127 L567.601562,19.3789063 C560.59082,13.7299805 556.395996,13.5683594 549.293945,19.3789063 L525.962891,39.9160156 C525.962891,39.9160156 520.952148,43.7421875 517.778584,36.6316259 L501,1.75587625" id="W" stroke-linecap="round" stroke-linejoin="round"></path>
                    <rect id="O" x="388" y="1" width="86" height="42" rx="16"></rect>
                    <path d="M83.9446745,1 L10.0566406,1 C10.0566406,1 0.71875,0.75587625 1,11.109375 L1,34.6230469 C1,34.6230469 1,42.6354117 11.4355469,42.6354117 L83.9446745,42.6354117" id="C" stroke-linecap="round" stroke-linejoin="round"></path>
                </g>
                <g id="TIM" stroke-linecap="round" stroke-linejoin="round" transform="translate(154.000000, 0.000000)">
                    <g id="T">
                        <path d="M22.65835,23 L65.674984,23" id="t-vert" transform="translate(44.166667, 26.000000) rotate(-90.000000) translate(-44.166667, -26.000000) "></path>
                        <path d="M83.31,3 L0,3" id="t-horiz"></path>
                    </g>
                    <g id="M" transform="translate(157.000000, 1.000000)">
                        <path d="M99,0 L99,46.1212497" id="vert2"></path>
                        <path d="M49,32.5634036 C50.6414657,32.5774994 52.3050711,32.0213126 53.9823326,30.9062702 L97.9086456,0" id="angle2"></path>
                        <path d="M3,0 L44.351562,30.9062702 C45.9144452,32.0163861 47.506638,32.5652366 49.1200928,32.5636616" id="angle1"></path>
                        <path d="M3,47.1694599 L3,1.04821022" id="vert1"></path>
                    </g>
                    <path d="M118,47.8930399 L118,2.04821022" id="I"></path>
                </g>
            </g>
            <g id="Group" transform="translate(175.000000, 91.000000)" stroke="#FFFFFF" stroke-width="7">
                <g id="Clulow" transform="translate(0.000000, 86.000000)">
                    <path d="M271.949997,0.755876251 L271.949997,20.7964747 C271.698614,33.6035156 263.066791,42.8370732 241.756306,42.8370732 L227.714346,42.8370732 C202.244608,42.8370732 195,34.7304688 195,21.7964747 L195,1.38788821" id="U" stroke-linecap="round" stroke-linejoin="round"></path>
                    <path d="M359.838094,43.449185 L324,43.449185 C324,43.449185 314,43.449185 314,33.1308425 L314,1" id="L2" stroke-linecap="round" stroke-linejoin="round"></path>
                    <path d="M165.838094,43.449185 L130,43.449185 C130,43.449185 120,43.449185 120,33.1308425 L120,1" id="L1" stroke-linecap="round" stroke-linejoin="round"></path>
                    <path d="M615.960938,1.75587625 C615.960938,1.75587625 598.868859,36.8938274 598.607202,37.3205587 C594.999023,43.2050612 590.347747,38.6420127 590.347747,38.6420127 L567.601562,19.3789063 C560.59082,13.7299805 556.395996,13.5683594 549.293945,19.3789063 L525.962891,39.9160156 C525.962891,39.9160156 520.952148,43.7421875 517.778584,36.6316259 L501,1.75587625" id="W" stroke-linecap="round" stroke-linejoin="round"></path>
                    <rect id="O" x="388" y="1" width="86" height="42" rx="16"></rect>
                    <path d="M83.9446745,1 L10.0566406,1 C10.0566406,1 0.71875,0.75587625 1,11.109375 L1,34.6230469 C1,34.6230469 1,42.6354117 11.4355469,42.6354117 L83.9446745,42.6354117" id="C" stroke-linecap="round" stroke-linejoin="round"></path>
                </g>
                <g id="TIM" stroke-linecap="round" stroke-linejoin="round" transform="translate(154.000000, 0.000000)">
                    <g id="T">
                        <path d="M22.65835,23 L65.674984,23" id="t-vert" transform="translate(44.166667, 26.500000) rotate(-90.000000) translate(-44.166667, -26.500000) "></path>
                        <path d="M83.31,3.5 L0,3.5" id="t-horiz"></path>
                    </g>
                    <g id="M" transform="translate(157.000000, 1.000000)">
                        <path d="M99.5,0 L99.5,46.1212497" id="vert2"></path>
                        <path d="M49,32.5634036 C50.6414657,32.5774994 52.3050711,32.0213126 53.9823326,30.9062702 L97.9086456,0" id="angle2"></path>
                        <path d="M3,0 L44.351562,30.9062702 C45.9144452,32.0163861 47.506638,32.5652366 49.1200928,32.5636616" id="angle1"></path>
                        <path d="M3.5,47.1694599 L3.5,1.04821022" id="vert1"></path>
                    </g>
                    <path d="M118,47.8930399 L118,2.04821022" id="I"></path>
                </g>
            </g>
        </g>
    </g>
</svg>