<?xml version="1.0" encoding="UTF-8"?>
<svg id="timclulow-word" width="619px" height="133px" viewBox="0 0 619 133" version="1.1" xmlns="http://www.w3.org/2000/svg" xmlns:xlink="http://www.w3.org/1999/xlink">
    <!-- Generator: Sketch 43.2 (39069) - http://www.bohemiancoding.com/sketch -->
    <title>timclulow</title>
    <desc>Created with Sketch.</desc>
    <defs></defs>
    <g id="Page-1" stroke="none" stroke-width="1" fill="none" fill-rule="evenodd">
        <g id="timclulow" transform="translate(1.000000, 2.000000)" stroke="#000000" stroke-width="4">
            <g id="Clulow" transform="translate(0.000000, 85.000000)">
                <path d="M271.949997,0.755876251 L271.949997,20.7964747 C271.698614,33.6035156 263.066791,42.8370732 241.756306,42.8370732 L227.714346,42.8370732 C202.244608,42.8370732 195,34.7304688 195,21.7964747 L195,1.38788821" id="U" stroke-linecap="round" stroke-linejoin="round"></path>
                <path d="M357.838094,43.449185 L322,43.449185 C322,43.449185 312,43.449185 312,33.1308425 L312,1" id="L2" stroke-linecap="round" stroke-linejoin="round"></path>
                <path d="M165.838094,43.449185 L130,43.449185 C130,43.449185 120,43.449185 120,33.1308425 L120,1" id="L2-Copy" stroke-linecap="round" stroke-linejoin="round"></path>
                <path d="M615.960938,1.75587625 C615.960938,1.75587625 598.868859,36.8938274 598.607202,37.3205587 C594.999023,43.2050612 590.347747,38.6420127 590.347747,38.6420127 L567.601562,19.3789063 C560.59082,13.7299805 556.395996,13.5683594 549.293945,19.3789063 L525.962891,39.9160156 C525.962891,39.9160156 520.952148,43.7421875 517.778584,36.6316259 L501,1.75587625" id="W" stroke-linecap="round" stroke-linejoin="round"></path>
                <rect id="Rectangle-Copy-6" x="388" y="1" width="86" height="42" rx="16"></rect>
                <path d="M83.9446745,1.75587625 L10.0566406,1.75587625 C10.0566406,1.75587625 0.71875,1.75587625 1,12.109375 L1,34.6230469 C1,34.6230469 1,42.6354117 11.4355469,42.6354117 L83.9446745,42.6354117" id="C" stroke-linecap="round" stroke-linejoin="round"></path>
            </g>
            <g id="TIM" stroke-linecap="round" stroke-linejoin="round" transform="translate(152.000000, 0.000000)">
                <g id="T">
                    <path d="M22.1583497,23 L65.1749837,23" id="Path-9" transform="translate(43.666667, 23.000000) rotate(-90.000000) translate(-43.666667, -23.000000) "></path>
                    <path d="M0,0 L83.3147146,0" id="Path-9-Copy-2"></path>
                </g>
                <path d="M162,44 L162,0 L203.351562,30.9062702 C206.483154,33.13064 209.732422,33.1015719 213.034624,30.9062702 L256.960937,0 L256.960937,44" id="M"></path>
                <path d="M97.1318536,23 L140.868147,23" id="I" transform="translate(119.000000, 23.000000) rotate(-90.000000) translate(-119.000000, -23.000000) "></path>
            </g>
        </g>
    </g>
</svg>