<?xml version="1.0" encoding="UTF-8"?>
<svg width="619px" height="133px" viewBox="0 0 619 133" version="1.1" xmlns="http://www.w3.org/2000/svg" xmlns:xlink="http://www.w3.org/1999/xlink">
    <!-- Generator: Sketch 43.2 (39069) - http://www.bohemiancoding.com/sketch -->
    <title>timclulow</title>
    <desc>Created with Sketch.</desc>
    <defs></defs>
    <g id="Page-1" stroke="none" stroke-width="1" fill="none" fill-rule="evenodd">
        <g id="timclulow" transform="translate(-21.000000, -20.000000)" stroke="#000000" stroke-width="4">
            <g transform="translate(22.000000, 21.000000)">
                <g id="Clulow" transform="translate(0.000000, 86.000000)">
                    <path d="M271.949997,0.755876251 L271.949997,20.7964747 C271.698614,33.6035156 263.066791,42.8370732 241.756306,42.8370732 L227.714346,42.8370732 C202.244608,42.8370732 195,34.7304688 195,21.7964747 L195,1.38788821" id="U" stroke-linecap="round" stroke-linejoin="round"></path>
                    <path d="M359.838094,43.449185 L324,43.449185 C324,43.449185 314,43.449185 314,33.1308425 L314,1" id="L2" stroke-linecap="round" stroke-linejoin="round"></path>
                    <path d="M165.838094,43.449185 L130,43.449185 C130,43.449185 120,43.449185 120,33.1308425 L120,1" id="L1" stroke-linecap="round" stroke-linejoin="round"></path>
                    <path d="M615.960938,1.75587625 C615.960938,1.75587625 598.868859,36.8938274 598.607202,37.3205587 C594.999023,43.2050612 590.347747,38.6420127 590.347747,38.6420127 L567.601562,19.3789063 C560.59082,13.7299805 556.395996,13.5683594 549.293945,19.3789063 L525.962891,39.9160156 C525.962891,39.9160156 520.952148,43.7421875 517.778584,36.6316259 L501,1.75587625" id="W" stroke-linecap="round" stroke-linejoin="round"></path>
                    <rect id="O" x="388" y="1" width="86" height="42" rx="16"></rect>
                    <path d="M83.9446745,1 L10.0566406,1 C10.0566406,1 0.71875,0.75587625 1,11.109375 L1,34.6230469 C1,34.6230469 1,42.6354117 11.4355469,42.6354117 L83.9446745,42.6354117" id="C" stroke-linecap="round" stroke-linejoin="round"></path>
                </g>
                <g id="TIM" stroke-linecap="round" stroke-linejoin="round" transform="translate(154.000000, 0.000000)">
                    <g id="T">
                        <path d="M22.65835,23 L65.674984,23" id="t-vert" transform="translate(44.166667, 25.000000) rotate(-90.000000) translate(-44.166667, -25.000000) "></path>
                        <path d="M83.31,1 L0,1" id="t-horiz"></path>
                    </g>
                    <g id="M" transform="translate(159.000000, 1.000000)">
                        <path d="M95.960937,0 L95.960937,44" id="vert2"></path>
                        <path d="M47,32.5634036 C48.6414657,32.5774994 50.3050711,32.0213126 51.9823326,30.9062702 L95.9086456,0" id="angle2"></path>
                        <path d="M1,0 L42.351562,30.9062702 C43.9144452,32.0163861 45.506638,32.5652366 47.1200928,32.5636616" id="angle1"></path>
                        <path d="M1,45 L1,1" id="vert1"></path>
                    </g>
                    <path d="M96.1318533,25 L139.868147,25" id="I" transform="translate(118.000000, 25.000000) rotate(-90.000000) translate(-118.000000, -25.000000) "></path>
                </g>
            </g>
        </g>
    </g>
</svg>